<svg xmlns="http://www.w3.org/2000/svg" xmlns:xlink="http://www.w3.org/1999/xlink" width="200" zoomAndPan="magnify" viewBox="0 0 150 149.999998" height="200" preserveAspectRatio="xMidYMid meet" version="1.0"><defs><g/></defs><g fill="#ffc441" fill-opacity="1"><g transform="translate(31.227451, 122.43281)"><g><path d="M 27.78125 -90.125 L 27.78125 0 L 10.5625 0 L 10.5625 -90.125 Z M 27.78125 -90.125 "/></g></g></g><g fill="#ffc441" fill-opacity="1"><g transform="translate(69.573789, 122.43281)"><g><path d="M 58.3125 0 L 52.703125 -20.875 L 22.828125 -20.875 L 17.21875 0 L -0.65625 0 L 27.390625 -90.125 L 48.65625 -90.125 L 76.5625 0 Z M 26.21875 -33.90625 L 49.171875 -33.90625 L 37.703125 -76.953125 Z M 26.21875 -33.90625 "/></g></g></g><path stroke-linecap="butt" transform="matrix(0.75, 0, 0, 0.75, 0.00000125, 0.0149267)" fill="none" stroke-linejoin="miter" d="M -0.00000166667 5.000931 L 200.00001 5.000931 " stroke="#ffc441" stroke-width="10" stroke-opacity="1" stroke-miterlimit="4"/><path stroke-linecap="butt" transform="matrix(0.75, 0, 0, 0.75, 0.00000125, 142.499994)" fill="none" stroke-linejoin="miter" d="M -0.00000166667 5.000009 L 200.00001 5.000009 " stroke="#ffc441" stroke-width="10" stroke-opacity="1" stroke-miterlimit="4"/><path stroke-linecap="butt" transform="matrix(0, -0.75, 0.75, 0, 0.00000125, 150.770062)" fill="none" stroke-linejoin="miter" d="M 0.000707673 4.999999 L 200.000719 4.999999 " stroke="#ffc441" stroke-width="10" stroke-opacity="1" stroke-miterlimit="4"/><path stroke-linecap="butt" transform="matrix(0, -0.75, 0.75, 0, 142.498822, 22.454814)" fill="none" stroke-linejoin="miter" d="M 0.00225196 5.001571 L 27.799129 5.001571 " stroke="#ffc441" stroke-width="10" stroke-opacity="1" stroke-miterlimit="4"/><path stroke-linecap="butt" transform="matrix(0, -0.75, 0.75, 0, 142.498822, 148.422694)" fill="none" stroke-linejoin="miter" d="M 0.00109219 5.001571 L 27.797969 5.001571 " stroke="#ffc441" stroke-width="10" stroke-opacity="1" stroke-miterlimit="4"/></svg>